<svg xmlns="http://www.w3.org/2000/svg" xmlns:xlink="http://www.w3.org/1999/xlink" version="1.1" id="store--logo" width="1350" height="675" viewBox="0 0 1261.1 147.2" style="enable-background:new 0 0 1261.1 147.2;" xml:space="preserve">
 <g>
  <path d="M1135.1,63.6V31.6l-18.2,25.8l-30.2-9.9l18.9,26L1087,99.4l29.9-9.9l18.2,26V83.5l30.5-9.9L1135.1,63.6L1135.1,63.6z">
  </path>
  <path d="M1194.1,0h-57.5l67,73.6l-67,73.6h57.5l67-73.6L1194.1,0z M65.1,43.1c9.1,0,18,4.4,24,11.7l2.2,2.7l28-19.3l-2.5-3.1   c-12.4-15.5-31.3-24.4-51.7-24.4C29.3,10.6,0,38.7,0,73s29.3,62.3,65.1,62.3c20.2,0,39-8.8,51.4-24l2.5-3.1L91,88.9l-2.2,2.7   C82.7,99,74.1,103.2,65,103.2c-16.6,0-30.7-13.8-30.7-30.1C34.4,56.8,48.5,43.1,65.1,43.1L65.1,43.1z M366.3,80.5l-50.7-66.4h-32.3   v117.4h31.3V65.8l47.3,65.8h35.7V14.1h-31.3L366.3,80.5L366.3,80.5z M486.8,97.7c0,0.9-1.3,1.1-1.9,1.1c-0.5,0-1.4-0.2-1.9-1.3   l-26-83.5h-36l38.4,117.4h51.2L549,14.1h-36L486.8,97.7L486.8,97.7z M778.4,83.6c12.5-7.2,19.7-20.4,18.6-34.8   c-1.4-19.6-18.5-34.6-38.8-34.6h-60v117.4h31.3V89.4h14.1c1.4,0,2.7,0.2,3.6,1.4l20.2,40.9h35.2C802.7,131.7,778.4,83.6,778.4,83.6   z M757.2,57.9h-27.6V45.4h27.6c3.8,0,6.9,2.5,6.9,6.3C764.1,55.4,761,57.9,757.2,57.9z M951.9,131.5h94v-31.3h-62.6V86.1h56.4V57.9   h-56.4V45.4h62.6V14.1h-94V131.5z M881.1,58.4c-16.8-3.8-21.6-6.3-21.6-11.7v-0.3c0-4.4,3.3-7.8,11.4-7.8   c10.8,0,19.6,3.4,31.3,10.5L921,26.8c-13.2-10.5-29-16.1-49.5-16.1c-29.1,0-46.5,16.3-46.5,38.8v0.3c0,24.9,20.5,32.3,46.3,38   c16.4,3.8,21,6.6,21,11.6v0.3c0,5.2-5.8,8.3-14.9,8.3c-14.1,0-27.9-5-39.8-14.6l-18.9,22.4c14.9,13.3,36.5,20,57.9,20   c29.4,0,50.1-14.7,50.1-39.5v-0.3C926.8,73.4,909,64.5,881.1,58.4z M195.4,10.8c-35.1,0-63.6,28-63.6,62.3   c0,34.4,28.5,62.3,63.6,62.3s63.6-28,63.6-62.3C259,38.7,230.5,10.8,195.4,10.8z M195.4,102.9c-16.4,0-29.8-13.3-29.8-29.8   s13.3-29.8,29.8-29.8s29.8,13.3,29.8,29.8S211.9,102.9,195.4,102.9z M571.4,131.5h94v-31.3h-62.6V86.1h56.4V57.9h-56.4V45.4h62.6   V14.1h-94V131.5z">
  </path>
 </g>
</svg>