<?xml version="1.0" encoding="UTF-8"?>
<!DOCTYPE svg PUBLIC "-//W3C//DTD SVG 1.1//EN" "http://www.w3.org/Graphics/SVG/1.1/DTD/svg11.dtd">
<!-- Creator: CorelDRAW 2019 (64-Bit) -->
<svg xmlns="http://www.w3.org/2000/svg" xml:space="preserve" width="198.193mm" height="35.5485mm" version="1.1" style="shape-rendering:geometricPrecision; text-rendering:geometricPrecision; image-rendering:optimizeQuality; fill-rule:evenodd; clip-rule:evenodd"
viewBox="0 0 198.0954 35.5311"
 xmlns:xlink="http://www.w3.org/1999/xlink"
 xmlns:xodm="http://www.corel.com/coreldraw/odm/2003">
 <defs>
  <style type="text/css">
   <![CDATA[
    .fil0 {fill:#1c1e25}
   ]]>
  </style>
 </defs>
 <g id="Layer_x0020_1">
  <metadata id="CorelCorpID_0Corel-Layer"/>
  <g id="_853527296">
   <path class="fil0" d="M23.4043 6.8881c1.9007,0 3.4443,-1.5437 3.4443,-3.4485 0,-1.9002 -1.5436,-3.4396 -3.4443,-3.4396 -1.9042,0 -3.4478,1.5394 -3.4478,3.4396 0,1.9048 1.5436,3.4485 3.4478,3.4485zm-6.0694 13.6744l0 0c-0.2287,0.3524 -0.7422,1.1324 -1.0816,1.7135l7.147 7.1513 7.1512 -7.1513c-0.3349,-0.581 -0.8524,-1.361 -1.0776,-1.7135l-6.0696 6.0655 -6.0694 -6.0655z"/>
   <path class="fil0" d="M18.4801 18.904l4.9242 4.929 4.9204 -4.9161 -4.9204 -6.9644 -4.9242 6.9515zm4.9202 13.3187l0 0 -8.1097 -8.1142c-0.3096,0.8867 -0.4794,1.8364 -0.4794,2.8334 0,4.7464 3.8132,8.5892 8.5594,8.5892 4.7423,0 8.6231,-3.8473 8.6231,-8.5892 0,-0.9923 -0.1697,-1.9467 -0.4792,-2.8334l-8.1142 8.1142zm19.3582 -29.7669l0 0c2.4769,1.7941 4.1822,4.4152 4.038,7.52 -0.6487,0 -1.7648,0.0042 -2.9224,0.0042 0,-1.3063 -0.4794,-2.6719 -1.2599,-3.7408 -1.6031,-2.0359 -4.2203,-2.952 -6.3537,-1.9724 -2.6002,1.213 -5.0772,3.9193 -7.3589,5.7132l14.9724 0c0,2.2227 -0.5092,3.8259 -1.6502,5.4336 -1.1406,1.6033 -3.7577,3.4354 -6.6844,3.4864 -2.9264,0.0508 -4.687,-0.8864 -6.7867,-3.2023 -2.0992,-2.3114 -4.0633,-5.7131 -4.0633,-5.7131 5.3911,-3.9827 10.833,-12.1903 18.0689,-7.5288zm-24.7067 13.2419l0 0c-2.0996,2.3115 -3.8597,3.2531 -6.7865,3.2063 -2.9266,-0.0467 -5.5436,-1.8785 -6.6847,-3.4863 -1.141,-1.6073 -1.6497,-3.215 -1.6497,-5.4331l14.9727 0c-2.2823,-1.7943 -4.7636,-4.4961 -7.3595,-5.7136 -2.1336,-0.9837 -4.7505,-0.0677 -6.3538,1.9724 -0.7806,1.0687 -1.2595,2.4345 -1.2595,3.7412 -1.1539,0 -2.2695,-0.0046 -2.9224,-0.0046 -0.1445,-3.109 1.5606,-5.7301 4.0377,-7.5242 7.2359,-4.6657 12.6777,3.5415 18.0688,7.5288 0,0 -1.9638,3.3971 -4.0633,5.7131zm177.3291 -14.3023l0 0c-0.7198,0 -1.4114,0.2858 -1.9207,0.795 -0.5078,0.5092 -0.7941,1.1996 -0.7941,1.9196 0,0.7198 0.2864,1.4102 0.7941,1.9196 0.5092,0.5092 1.2008,0.7949 1.9207,0.7949 1.4991,0 2.7145,-1.2154 2.7145,-2.7145 0,-1.4993 -1.2154,-2.7146 -2.7145,-2.7146zm0 5.0474l0 0c-1.2899,0 -2.3325,-1.0436 -2.3325,-2.3329 0,-1.2894 1.0426,-2.333 2.3325,-2.333 1.2897,0 2.3323,1.0436 2.3323,2.333 0,1.2851 -1.0426,2.3329 -2.3323,2.3329zm1.1451 -2.9987l0 0c0,0.5129 -0.4159,0.7463 -0.7766,0.8098l0.8321 1.3111 -0.5268 0 -0.7968 -1.2684 -0.3645 0 0 1.2684 -0.4795 0 0 -2.9481 0.9629 0c0.339,0 0.6144,0.0679 0.8184,0.2037 0.2039,0.1399 0.3308,0.3564 0.3308,0.6235zm-1.2816 0.5048l0 0 -0.3511 0 0 -0.997 0.3511 0c0.2376,0 0.42,0.0087 0.5725,0.1061 0.1527,0.0934 0.2175,0.2165 0.2175,0.3944 0,0.1785 -0.0648,0.297 -0.2175,0.3991 -0.1566,0.0888 -0.339,0.0974 -0.5725,0.0974zm-38.4487 11.8463l0 0 0 15.6003c0,1.5482 -1.2561,2.6253 -2.7998,2.6253l-1.5275 0c-1.5476,0 -2.7982,-1.0816 -2.7982,-2.6253l0 -13.7212c0,-0.9374 -0.7888,-1.1241 -1.3533,-1.1241l-0.3186 0c-0.547,0 -1.3398,0.1867 -1.3398,1.1328l0 13.7166c0,1.5483 -1.2561,2.6258 -2.7996,2.6258l-1.6031 0c-1.514,-0.0343 -2.7268,-1.1032 -2.7268,-2.6258l0 -13.7212c0,-0.9374 -0.8062,-1.1236 -1.3532,-1.1236l-0.3309 0c-0.5685,0 -1.3451,0.1862 -1.3451,1.1236l0 13.7212c0,1.5483 -1.2547,2.6258 -2.7992,2.6258l-1.5268 0c-1.5482,0 -2.7995,-1.0817 -2.7995,-2.6258l0 -15.6003c0,-3.2273 1.4127,-5.8234 6.299,-5.8234l15.2355 0c4.4406,-0.004 5.8871,2.5916 5.8871,5.8193zm18.959 9.3271l0 0 -9.8402 0 0 1.493c0,0.4411 0.216,1.1324 0.9805,1.1324 0.42,0.0045 12.032,0.0256 12.032,0.0256 1.5491,0 2.6269,1.0986 2.6269,2.456l0 1.34c0,1.3574 -1.0819,2.4561 -2.6269,2.4561l-14.3144 0c-2.6675,0 -5.8236,-1.2386 -5.8236,-5.5228l0 -13.0042c0,-4.1906 3.0834,-5.5226 5.8236,-5.5226l11.1459 0c2.6687,0 5.8249,1.2386 5.8249,5.5226l0 4.1057c-0.0054,4.2797 -3.1601,5.5182 -5.8288,5.5182zm-0.9077 -7.435l0 0 0 -0.276c0,-0.4919 -0.2202,-1.1878 -1.2345,-1.1878l-6.4636 0c-1.013,0 -1.2344,0.696 -1.2344,1.1878l0 1.4635 7.7197 0c1.0048,-0.0128 1.2128,-0.7 1.2128,-1.1875zm13.0516 -16.2918l0 0 -1.5275 0c-1.5476,0 -2.7995,1.0817 -2.7995,2.6253l0 27.3748c0,1.5482 1.256,2.6253 2.7995,2.6253l1.5275 0c1.5478,0 2.7997,-1.0816 2.7997,-2.6253l0 -27.3748c0,-1.5477 -1.256,-2.6253 -2.7997,-2.6253zm-92.7492 8.5764l0 0 -1.5268 0c-1.5483,0 -2.7996,1.0817 -2.7996,2.6253l0 13.6109c0,1.001 -0.7929,1.2344 -1.3528,1.2344l-5.4039 0c-0.5595,0 -1.3529,-0.2247 -1.3529,-1.2344l0 -13.6109c0,-1.5478 -1.2556,-2.6253 -2.7991,-2.6253l-1.5273 0c-1.5478,0 -2.7992,1.0817 -2.7992,2.6253l0 15.6002c0,2.6678 1.4125,5.8234 6.2984,5.8234l9.7682 0c4.8864,0 6.299,-3.1557 6.299,-5.8234l0 -15.6002c-0.0042,-1.5436 -1.2555,-2.6253 -2.8039,-2.6253zm26.3231 0l0 0 -15.2359 0c-4.8859,0 -6.2982,2.5956 -6.2982,5.8233l0 15.6003c0,1.5482 1.2555,2.6253 2.7993,2.6253l1.5265 0c1.5484,0 2.7997,-1.0816 2.7997,-2.6253l0 -13.7212c0,-0.9374 0.776,-1.1241 1.3447,-1.1241l0.3307 0c0.5425,0 1.3529,0.1867 1.3529,1.1241l0 13.7212c0,1.5227 1.213,2.5915 2.7273,2.6253l1.6032 0c1.5483,0 2.7996,-1.0816 2.7996,-2.6253l0 -13.7171c0,-0.9456 0.793,-1.1323 1.3401,-1.1323l0.3179 0c0.5641,0 1.3534,0.1867 1.3534,1.124l0 13.7213c0,1.5478 1.2554,2.6253 2.7991,2.6253l1.5273 0c1.5478,0 2.7991,-1.0817 2.7991,-2.6253l0 -15.6003c0.0128,-3.2236 -1.4334,-5.8192 -5.8869,-5.8192zm-54.1854 0l0 0 -9.3655 0 0 -5.9511c0,-1.5477 -1.2555,-2.6253 -2.7991,-2.6253l-1.527 0c-1.5481,0 -2.7994,1.0817 -2.7994,2.6253l0 27.3748c0,1.5482 1.2555,2.6253 2.7994,2.6253l1.527 0c1.5482,0 2.7991,-1.0816 2.7991,-2.6253l0 -14.735 7.181 0c0.5599,0 1.3533,0.2081 1.3533,1.2344l0 13.4965c0,1.5478 1.2555,2.6253 2.7992,2.6253l1.5269 0c1.5481,0 2.7995,-1.0817 2.7995,-2.6253l0 -15.6003c0.0082,-2.6595 -1.4084,-5.8192 -6.2944,-5.8192z"/>
  </g>
 </g>
</svg>
