<svg width="501" height="583" version="1.1" xmlns="http://www.w3.org/2000/svg" desc="Created with imagetracer.js version 1.2.6" >

<path  stroke-width="1" opacity="1" d="M 247.5 1 L 252.5 1 L 260.5 5 L 499 145.5 L 500 148.5 L 500 435.5 L 484.5 446 L 251.5 582 L 249.5 582 L 1 437 L 1 145.5 L 2.5 144 L 247.5 1 Z M 250 24 L 24 157 L 22 158 L 22 425 Q 137 490 250 558 L 479 424 L 478 160 L 473 154 L 460 146 L 250 24 Z " />
<path  stroke-width="1" opacity="1" d="M 250.5 60 L 280.5 125 L 309 104 L 308 106.5 L 308 113.5 L 305 128.5 L 305 135.5 L 304 136.5 L 295 205.5 L 297.5 204 L 351.5 152 L 353 159.5 L 353 170.5 L 354 171.5 L 354 182.5 L 355 185 L 421.5 174 L 420 176.5 L 389 230.5 L 388 235 L 420.5 245 L 422 246.5 L 366 276 L 367 249.5 Q 365.8 246.8 364.5 249 L 347 265.5 L 317.5 296 L 316 292.5 L 323 254.5 L 323 248.5 L 329 216.5 L 330 203 L 324.5 205 L 289.5 232 L 285 234 L 250.5 161 Q 231 196.2 215 234 L 210.5 232 L 175.5 205 L 170 203 L 170 209.5 L 177 246.5 L 177 252.5 L 179 259.5 L 179 265.5 L 180 266.5 L 184 296 L 176 289.5 L 136.5 248 L 134 248.5 L 134 275.5 L 132.5 276 L 79 245.5 L 112 235 L 110 228.5 L 79 174.5 L 82.5 174 L 128.5 183 L 146 185 L 148.5 152 L 204.5 206 L 205 201.5 L 204 200.5 L 204 193.5 L 201 178.5 L 201 171.5 L 198 156.5 L 198 149.5 L 196 141.5 L 196 134.5 L 193 119.5 L 192 105 L 195.5 106 L 219.5 125 L 250.5 60 Z " />
<path  stroke-width="1" opacity="1" d="M 249 204 Q 251.7 202.9 251 205.5 L 277 258.5 L 278 263 L 303.5 242 L 304 247.5 L 303 248.5 L 303 257.5 L 301 267.5 L 301 276.5 L 299 286.5 L 299 295.5 L 298 296.5 L 298 305.5 L 296 315.5 L 294 344 L 296.5 344 L 348.5 296 L 350.5 325 L 416 311 L 387 369.5 L 387 372 L 417 382.5 L 325 433.5 L 338 472 L 258 452 L 258 521.5 L 257.5 522 L 242 522 L 241.5 452 L 162.5 472 L 163 470.5 L 176 433.5 L 84 382.5 L 113 372 L 113 369.5 L 83 311.5 L 84.5 311 L 120.5 319 L 125.5 319 L 151 324 L 151.5 295 L 206.5 346 L 207 340.5 L 206 339.5 L 206 330.5 L 205 329.5 L 205 321.5 L 204 320.5 L 203 302.5 L 202 301.5 L 202 293.5 L 201 292.5 L 201 284.5 L 200 283.5 L 200 275.5 L 199 274.5 L 199 265.5 L 198 264.5 L 196 242.5 L 200.5 246 L 223 263 L 249 204 Z " /></svg>