<svg xmlns:x="ns_extend;" xmlns:i="ns_ai;" xmlns:graph="ns_graphs;" xmlns="http://www.w3.org/2000/svg" xmlns:xlink="http://www.w3.org/1999/xlink" version="1.1" id="Layer_1" width="800" height="800" viewBox="0 0 175.6 99.9" style="enable-background:new 0 0 175.6 99.9;" xml:space="preserve">
 <style type="text/css">
  .st0{fill:#0C0D0D;}
 </style>
 <metadata>
  <sfw xmlns="ns_sfw;">
   <slices>
   </slices>
   <sliceSourceBounds bottomLeftOrigin="true" height="99.8" width="175.6" x="0" y="0.1">
   </sliceSourceBounds>
  </sfw>
 </metadata>
 <g>
  <path class="st0" d="M112.8,49.9c-0.6,0.5-1.4,1-2.3,1.6c-5.8,4.1-14.3,7-25.3,7h-0.7c-11,0-19.5-2.8-25.3-7   c-0.9-0.6-1.7-1.2-2.3-1.6c0.6-0.5,1.4-1,2.3-1.7c5.8-4.1,14.3-7,25.3-7h0.7c11,0,19.5,2.8,25.3,7   C111.4,48.9,112.1,49.5,112.8,49.9 M169.6,15.9c0,0-5-3.8-20.8-9.6C134.9,1.1,124.4,0,124.4,0v30c0,4.2-1.1,8.1-4.4,12.5   c-11.8-4.3-23-7-35.2-7s-23.4,2.6-35.2,7c-3.2-4.4-4.4-8.3-4.4-12.5V0c0,0-10.6,1.1-24.5,6.2C5,12.1,0,15.9,0,15.9   C0.7,29.5,12.6,41.6,31.3,50C12.6,58.3,0.6,70.4,0,84c0,0,5,3.8,20.8,9.6c13.9,5.1,24.4,6.2,24.4,6.2l-0.1-30   c0-4.2,1.2-8.1,4.4-12.5c11.8,4.3,23,6.9,35.2,6.9s23.4-2.6,35.2-6.9c3.2,4.4,4.4,8.2,4.4,12.5v30c0,0,10.5-1.1,24.4-6.2   c15.8-5.8,20.8-9.6,20.8-9.6c-0.7-13.6-12.6-25.7-31.3-34.1C157,41.6,168.9,29.5,169.6,15.9 M175.2,80.4c0,0.7-0.4,1.4-1.1,1.6   c-0.7,0.3-1.4,0.1-1.9-0.4s-0.7-1.3-0.4-1.9c0.3-0.7,0.9-1.1,1.6-1.1c0.5,0,0.9,0.2,1.2,0.5C175,79.5,175.2,79.9,175.2,80.4    M175.6,80.4c0-0.9-0.5-1.6-1.3-2c-0.8-0.3-1.7-0.2-2.3,0.5c-0.6,0.6-0.8,1.5-0.5,2.3s1.1,1.3,2,1.3   C174.6,82.5,175.6,81.6,175.6,80.4">
  </path>
  <path class="st0" d="M173.9,81.4h0.4l-0.6-0.9c0.1,0,0.3-0.1,0.4-0.2c0.1-0.1,0.1-0.3,0.1-0.4c0-0.3-0.2-0.6-0.7-0.6h-0.7v2h0.3   v-0.9h0.2L173.9,81.4z M173,79.6h0.3c0.3,0,0.4,0.1,0.4,0.3c0,0.2-0.1,0.3-0.4,0.3H173C173,80.3,173,79.6,173,79.6z">
  </path>
 </g>
</svg>